<?xml version="1.0" encoding="utf-8"?>
<!-- Generator: Adobe Illustrator 22.0.1, SVG Export Plug-In . SVG Version: 6.00 Build 0)  -->
<svg version="1.1" id="Layer_1" xmlns="http://www.w3.org/2000/svg" xmlns:xlink="http://www.w3.org/1999/xlink" x="0px" y="0px"
	 viewBox="0 0 74.1 76" style="enable-background:new 0 0 74.1 76;" xml:space="preserve">
<style type="text/css">
	.st0{fill:url(#XMLID_3_);}
	.st1{fill:#FFFFFF;}
</style>
<linearGradient id="XMLID_3_" gradientUnits="userSpaceOnUse" x1="244.0647" y1="637.7033" x2="697.6353" y2="955.2967" gradientTransform="matrix(1 0 0 1 0 -518)">
	<stop  offset="0" style="stop-color:#51C6DB"/>
	<stop  offset="1" style="stop-color:#33A3DC"/>
</linearGradient>
<rect id="XMLID_2_" x="220.4" y="153.5" class="st0" width="500.9" height="250"/>
<g id="XMLID_35_">
	<path id="XMLID_38_" class="st1" d="M560.9,300l17.3-17.3c1.8-1.8,1.8-4.7,0-6.5s-4.7-1.8-6.5,0l-17.3,17.3l-10.1-10.1
		c0,0-0.1,0-0.1-0.1c-4.9-5.3-11.9-8.6-19.6-8.6c-9.3,0-17.5,4.7-22.3,11.9c-4.8-7.2-13-11.9-22.3-11.9c-6.8,0-12.9,2.5-17.6,6.6
		v-33c0-2.5-2.1-4.6-4.6-4.6s-4.6,2.1-4.6,4.6v33c-1.6-1.4-3.3-2.6-5.1-3.5c-1.6-0.8-3.2-1.5-4.8-2c-1.7-0.5-3.4-0.8-5.1-1
		s-3.4-0.2-5.1,0s-3.4,0.5-5.1,1c-0.8,0.2-1.7,0.5-2.5,0.9c-3.2,1.3-6.3,3.3-8.9,5.9c-5.5,5.5-8.1,12.9-7.8,20.2v12
		c0,2.5-2.1,4.6-4.6,4.6s-4.6-2.1-4.6-4.6v-13.1v-20.5v-0.5c0-2.5-2.1-4.6-4.6-4.6l0,0l0,0c-2.5,0-4.6,2.1-4.6,4.6v0.5v20.5v13.1
		c0,2.5-2.1,4.6-4.6,4.6s-4.6-2.1-4.6-4.6v-13.1V295v-0.5c0-2.5-2.1-4.6-4.6-4.6s-4.6,2.1-4.6,4.6v19.8c0,0.1,0,0.2,0,0.3
		c0,0,0,0,0,0.1c0,7.6,6.2,13.8,13.8,13.8c3.6,0,6.8-1.4,9.3-3.6c2.4,2.2,5.7,3.6,9.3,3.6c5.5,0,10.2-3.2,12.4-7.9
		c9.4,9.4,23.9,10.3,34.4,3l0,0l0.1-0.1c1.3-0.8,2.2-2.3,2.2-3.9c0-2.5-2.1-4.6-4.6-4.6c-1,0-1.9,0.3-2.6,0.8l0,0
		c-0.6,0.4-1.2,0.8-1.8,1.2c-4.9,2.8-10.9,3.1-16,0.8l0,0c-1.4-0.6-2.8-1.4-4-2.5c-0.4-0.3-0.8-0.7-1.2-1.1l0,0l0,0
		c-0.5-0.5-1-1.1-1.5-1.7c-0.1-0.1-0.1-0.2-0.2-0.2c-0.4-0.6-0.8-1.2-1.2-1.8c-1.4-2.4-2.2-5.1-2.3-7.8V302l0,0
		c0-2.6,0.4-5.2,1.5-7.6l0,0c0.6-1.4,1.4-2.8,2.5-4c0.3-0.4,0.7-0.8,1.1-1.2l0,0c2.2-2.2,4.7-3.6,7.5-4.4c6-1.8,12.8-0.3,17.5,4.4
		c0.9,0.9,1.6,1.8,2.3,2.8c1,1.5,1.7,3,2.2,4.7c0.1,0.3,0.1,0.5,0.2,0.8h-16.7c-2.5,0-4.6,2.1-4.6,4.6s2.1,4.6,4.6,4.6h17.7
		c2.3,12.5,13.2,21.9,26.4,21.9c9.3,0,17.5-4.7,22.3-11.9c4.8,7.2,13,11.9,22.3,11.9c0.1,0,0.2,0,0.3,0h0.1c2.5,0,4.6-2.1,4.6-4.6
		s-2.1-4.6-4.6-4.6c-0.1,0-0.2,0-0.2,0l0,0l0,0c-0.1,0-0.1,0-0.2,0c-9.7,0-17.7-7.9-17.7-17.7c0-9.7,7.9-17.7,17.7-17.7
		c8.1,0,15,5.5,17,13h-16.7c-2.5,0-4.6,2.1-4.6,4.6s2.1,4.6,4.6,4.6h16.7h0.1l-7.9,7.9c-1.8,1.8-1.8,4.7,0,6.5s4.7,1.8,6.5,0
		l14.1-14.1l10.7,10.7c1.8,1.8,4.7,1.8,6.5,0s1.8-4.7,0-6.5L560.9,300z M479.9,319.3c-9.7,0-17.6-7.9-17.6-17.5v-0.1v-0.3
		c0.2-9.6,8-17.3,17.6-17.3c9.7,0,17.7,7.9,17.7,17.7C497.6,311.4,489.7,319.3,479.9,319.3z"/>
	<path id="XMLID_37_" class="st1" d="M578,319.1c-2.5,0-4.6,2.1-4.6,4.6s2.1,4.6,4.6,4.6s4.6-2.1,4.6-4.6S580.6,319.1,578,319.1z"/>
	<path id="XMLID_36_" class="st1" d="M376.3,285.2c2.5,0,4.6-2.1,4.6-4.6s-2.1-4.6-4.6-4.6s-4.6,2.1-4.6,4.6
		C371.7,283.2,373.7,285.2,376.3,285.2z"/>
</g>
<path class="st1" d="M37.1,2c-19.9,0-36,16.1-36,36s16.1,36,36,36c19.9,0,36-16.1,36-36S56.9,2,37.1,2z M22.4,16.9
	c2,0,3.8,1.7,3.8,3.8s-1.7,3.8-3.8,3.8s-3.8-1.7-3.8-3.8S20.4,16.9,22.4,16.9z M55.7,21.3v16.5l0,10.3c0,11.5-11.1,11-11.1,11
	c-2.9,0-5.6-0.8-7.6-2.7c-2,1.7-4.5,2.7-7.2,2.7c-6.1,0-11.1-5-11.1-11.1c0-0.1,0-0.1,0-0.1c0-0.1,0-0.2,0-0.2V31.7
	c0-2,1.7-3.7,3.7-3.7s3.7,1.7,3.7,3.7v0.4v5.4v10.5c0,2,1.7,3.7,3.7,3.7s3.7-1.7,3.7-3.7V37.5V21v-0.4c0-2,1.7-3.7,3.7-3.7
	c2,0,3.7,1.7,3.7,3.7V21v10.8c0,0.1,0,0.1,0,0.2v0.4v5.4v10.5c0.1,1.9,1.7,3.5,3.7,3.5c2,0,3.7-1.7,3.7-3.7v-9.7c0-0.7,0-1.5,0-2.2
	V21.3v-0.4c0-2,1.7-3.7,3.7-3.7c2,0,3.7,1.7,3.7,3.7V21.3z"/>
</svg>
