<?xml version="1.0" encoding="utf-8"?>
<!-- Generator: Adobe Illustrator 22.0.1, SVG Export Plug-In . SVG Version: 6.00 Build 0)  -->
<svg version="1.1" id="Layer_1" xmlns="http://www.w3.org/2000/svg" xmlns:xlink="http://www.w3.org/1999/xlink" x="0px" y="0px"
	 viewBox="0 0 224.8 98" style="enable-background:new 0 0 224.8 98;" xml:space="preserve">
<style type="text/css">
	.st0{fill:url(#XMLID_3_);}
	.st1{fill:#F5841F;}
	.st2{fill:#FFFFFF;}
</style>
<linearGradient id="XMLID_3_" gradientUnits="userSpaceOnUse" x1="319.3234" y1="130.707" x2="772.8831" y2="448.2929">
	<stop  offset="0" style="stop-color:#51C6DB"/>
	<stop  offset="1" style="stop-color:#33A3DC"/>
</linearGradient>
<rect id="XMLID_2_" x="295.7" y="164.5" class="st0" width="500.9" height="250"/>
<g id="XMLID_7_">
	<path id="XMLID_20_" class="st1" d="M196.1,62.9l17.3-17.3c1.8-1.8,1.8-4.7,0-6.5c-1.8-1.8-4.7-1.8-6.5,0l-17.3,17.3l-10.1-10.1
		c0,0-0.1,0-0.1-0.1c-4.9-5.3-11.9-8.6-19.6-8.6c-9.3,0-17.5,4.7-22.3,11.9c-4.8-7.2-13-11.9-22.3-11.9c-6.8,0-12.9,2.5-17.6,6.6
		v-33c0-2.5-2.1-4.6-4.6-4.6c-2.5,0-4.6,2.1-4.6,4.6v33c-1.6-1.4-3.3-2.6-5.1-3.5c-1.6-0.8-3.2-1.5-4.8-2c-1.7-0.5-3.4-0.8-5.1-1
		c-1.7-0.2-3.4-0.2-5.1,0c-1.7,0.2-3.4,0.5-5.1,1c-0.8,0.2-1.7,0.5-2.5,0.9c-3.2,1.3-6.3,3.3-8.9,5.9c-5.5,5.5-8.1,12.9-7.8,20.2v12
		c0,2.5-2.1,4.6-4.6,4.6c-2.5,0-4.6-2.1-4.6-4.6V64.5V44v-0.5c0-2.5-2.1-4.6-4.6-4.6c0,0,0,0,0,0s0,0,0,0c-2.5,0-4.6,2.1-4.6,4.6V44
		v20.5v13.1c0,2.5-2.1,4.6-4.6,4.6s-4.6-2.1-4.6-4.6V64.5v-6.7v-0.5c0-2.5-2.1-4.6-4.6-4.6s-4.6,2.1-4.6,4.6v19.8c0,0.1,0,0.2,0,0.3
		c0,0,0,0,0,0.1c0,7.6,6.2,13.8,13.8,13.8c3.6,0,6.8-1.4,9.3-3.6c2.4,2.2,5.7,3.6,9.3,3.6c5.5,0,10.2-3.2,12.4-7.9
		c9.4,9.4,23.9,10.3,34.4,3c0,0,0,0,0,0c0,0,0.1-0.1,0.1-0.1c1.3-0.8,2.2-2.3,2.2-3.9c0-2.5-2.1-4.6-4.6-4.6c-1,0-1.9,0.3-2.6,0.8
		l0,0c-0.6,0.4-1.2,0.8-1.8,1.2c-4.9,2.8-10.9,3.1-16,0.8l0,0c-1.4-0.6-2.8-1.4-4-2.5c-0.4-0.3-0.8-0.7-1.2-1.1c0,0,0,0,0,0
		c0,0,0,0,0,0c-0.5-0.5-1-1.1-1.5-1.7c-0.1-0.1-0.1-0.2-0.2-0.2c-0.4-0.6-0.8-1.2-1.2-1.8c-1.4-2.4-2.2-5.1-2.3-7.8v-0.6
		c0,0,0,0,0,0c0-2.6,0.4-5.2,1.5-7.6l0,0c0.6-1.4,1.4-2.8,2.5-4c0.3-0.4,0.7-0.8,1.1-1.2c0,0,0,0,0,0c2.2-2.2,4.7-3.6,7.5-4.4
		c6-1.8,12.8-0.3,17.5,4.4c0.9,0.9,1.6,1.8,2.3,2.8c1,1.5,1.7,3,2.2,4.7c0.1,0.3,0.1,0.5,0.2,0.8H71.1c-2.5,0-4.6,2.1-4.6,4.6
		c0,2.5,2.1,4.6,4.6,4.6h17.7c2.3,12.5,13.2,21.9,26.4,21.9c9.3,0,17.5-4.7,22.3-11.9c4.8,7.2,13,11.9,22.3,11.9c0.1,0,0.2,0,0.3,0
		c0,0,0.1,0,0.1,0c2.5,0,4.6-2.1,4.6-4.6c0-2.5-2.1-4.6-4.6-4.6c-0.1,0-0.2,0-0.2,0l0,0c0,0,0,0,0,0c-0.1,0-0.1,0-0.2,0
		c-9.7,0-17.7-7.9-17.7-17.7c0-9.7,7.9-17.7,17.7-17.7c8.1,0,15,5.5,17,13h-16.7c-2.5,0-4.6,2.1-4.6,4.6c0,2.5,2.1,4.6,4.6,4.6h16.7
		h0.1L169,77c-1.8,1.8-1.8,4.7,0,6.5s4.7,1.8,6.5,0l14.1-14.1l10.7,10.7c1.8,1.8,4.7,1.8,6.5,0c1.8-1.8,1.8-4.7,0-6.5L196.1,62.9z
		 M115.2,82.1c-9.7,0-17.6-7.9-17.6-17.5c0,0,0-0.1,0-0.1v-0.3c0.2-9.6,8-17.3,17.6-17.3c9.7,0,17.7,7.9,17.7,17.7
		C132.9,74.2,124.9,82.1,115.2,82.1z"/>
	<path id="XMLID_23_" class="st1" d="M213.3,81.9c-2.5,0-4.6,2.1-4.6,4.6c0,2.5,2.1,4.6,4.6,4.6s4.6-2.1,4.6-4.6
		C217.9,84,215.8,81.9,213.3,81.9z"/>
	<path id="XMLID_24_" class="st1" d="M11.5,48.1c2.5,0,4.6-2.1,4.6-4.6c0-2.5-2.1-4.6-4.6-4.6s-4.6,2.1-4.6,4.6
		C6.9,46,9,48.1,11.5,48.1z"/>
</g>
<g id="XMLID_35_">
	<path id="XMLID_38_" class="st2" d="M636.2,311l17.3-17.3c1.8-1.8,1.8-4.7,0-6.5c-1.8-1.8-4.7-1.8-6.5,0l-17.3,17.3l-10.1-10.1
		c0,0-0.1,0-0.1-0.1c-4.9-5.3-11.9-8.6-19.6-8.6c-9.3,0-17.5,4.7-22.3,11.9c-4.8-7.2-13-11.9-22.3-11.9c-6.8,0-12.9,2.5-17.6,6.6
		v-33c0-2.5-2.1-4.6-4.6-4.6s-4.6,2.1-4.6,4.6v33c-1.6-1.4-3.3-2.6-5.1-3.5c-1.6-0.8-3.2-1.5-4.8-2c-1.7-0.5-3.4-0.8-5.1-1
		c-1.7-0.2-3.4-0.2-5.1,0c-1.7,0.2-3.4,0.5-5.1,1c-0.8,0.2-1.7,0.5-2.5,0.9c-3.2,1.3-6.3,3.3-8.9,5.9c-5.5,5.5-8.1,12.9-7.8,20.2v12
		c0,2.5-2.1,4.6-4.6,4.6c-2.5,0-4.6-2.1-4.6-4.6v-13.1v-20.5v-0.5c0-2.5-2.1-4.6-4.6-4.6c0,0,0,0,0,0c0,0,0,0,0,0
		c-2.5,0-4.6,2.1-4.6,4.6v0.5v20.5v13.1c0,2.5-2.1,4.6-4.6,4.6c-2.5,0-4.6-2.1-4.6-4.6v-13.1V306v-0.5c0-2.5-2.1-4.6-4.6-4.6
		c-2.5,0-4.6,2.1-4.6,4.6v19.8c0,0.1,0,0.2,0,0.3c0,0,0,0,0,0.1c0,7.6,6.2,13.8,13.8,13.8c3.6,0,6.8-1.4,9.3-3.6
		c2.4,2.2,5.7,3.6,9.3,3.6c5.5,0,10.2-3.2,12.4-7.9c9.4,9.4,23.9,10.3,34.4,3c0,0,0,0,0,0c0,0,0.1-0.1,0.1-0.1
		c1.3-0.8,2.2-2.3,2.2-3.9c0-2.5-2.1-4.6-4.6-4.6c-1,0-1.9,0.3-2.6,0.8l0,0c-0.6,0.4-1.2,0.8-1.8,1.2c-4.9,2.8-10.9,3.1-16,0.8l0,0
		c-1.4-0.6-2.8-1.4-4-2.5c-0.4-0.3-0.8-0.7-1.2-1.1c0,0,0,0,0,0c0,0,0,0,0,0c-0.5-0.5-1-1.1-1.5-1.7c-0.1-0.1-0.1-0.2-0.2-0.2
		c-0.4-0.6-0.8-1.2-1.2-1.8c-1.4-2.4-2.2-5.1-2.3-7.8V313c0,0,0,0,0,0c0-2.6,0.4-5.2,1.5-7.6l0,0c0.6-1.4,1.4-2.8,2.5-4
		c0.3-0.4,0.7-0.8,1.1-1.2c0,0,0,0,0,0c2.2-2.2,4.7-3.6,7.5-4.4c6-1.8,12.8-0.3,17.5,4.4c0.9,0.9,1.6,1.8,2.3,2.8
		c1,1.5,1.7,3,2.2,4.7c0.1,0.3,0.1,0.5,0.2,0.8h-16.7c-2.5,0-4.6,2.1-4.6,4.6c0,2.5,2.1,4.6,4.6,4.6h17.7
		c2.3,12.5,13.2,21.9,26.4,21.9c9.3,0,17.5-4.7,22.3-11.9c4.8,7.2,13,11.9,22.3,11.9c0.1,0,0.2,0,0.3,0c0,0,0.1,0,0.1,0
		c2.5,0,4.6-2.1,4.6-4.6c0-2.5-2.1-4.6-4.6-4.6c-0.1,0-0.2,0-0.2,0l0,0c0,0,0,0,0,0c-0.1,0-0.1,0-0.2,0c-9.7,0-17.7-7.9-17.7-17.7
		c0-9.7,7.9-17.7,17.7-17.7c8.1,0,15,5.5,17,13h-16.7c-2.5,0-4.6,2.1-4.6,4.6s2.1,4.6,4.6,4.6h16.7h0.1l-7.9,7.9
		c-1.8,1.8-1.8,4.7,0,6.5s4.7,1.8,6.5,0l14.1-14.1l10.7,10.7c1.8,1.8,4.7,1.8,6.5,0c1.8-1.8,1.8-4.7,0-6.5L636.2,311z M555.2,330.3
		c-9.7,0-17.6-7.9-17.6-17.5c0,0,0-0.1,0-0.1v-0.3c0.2-9.6,8-17.3,17.6-17.3c9.7,0,17.7,7.9,17.7,17.7
		C572.9,322.4,565,330.3,555.2,330.3z"/>
	<path id="XMLID_37_" class="st2" d="M653.3,330.1c-2.5,0-4.6,2.1-4.6,4.6s2.1,4.6,4.6,4.6c2.5,0,4.6-2.1,4.6-4.6
		S655.9,330.1,653.3,330.1z"/>
	<path id="XMLID_36_" class="st2" d="M451.6,296.2c2.5,0,4.6-2.1,4.6-4.6c0-2.5-2.1-4.6-4.6-4.6c-2.5,0-4.6,2.1-4.6,4.6
		C447,294.2,449,296.2,451.6,296.2z"/>
</g>
</svg>
